<svg width="25" height="25" viewBox="0 0 25 25" fill="none" xmlns="http://www.w3.org/2000/svg">
<path d="M12.5 0C19.4038 0 25 5.59625 25 12.5C25 19.4037 19.4038 25 12.5 25C10.291 25.0038 8.12074 24.4192 6.21251 23.3062L0.00501932 25L1.69502 18.79C0.581217 16.8811 -0.00385203 14.71 1.90858e-05 12.5C1.90858e-05 5.59625 5.59627 0 12.5 0ZM8.24001 6.625L7.99001 6.63499C7.82838 6.64613 7.67045 6.68859 7.52501 6.75999C7.38948 6.83688 7.26572 6.93287 7.15751 7.04499C7.00751 7.18624 6.92251 7.30874 6.83126 7.42749C6.36892 8.02862 6.11998 8.76663 6.12376 9.52499C6.12626 10.1375 6.28626 10.7337 6.53626 11.2912C7.04751 12.4187 7.88876 13.6125 8.99876 14.7187C9.26626 14.985 9.52876 15.2525 9.81126 15.5012C11.1906 16.7155 12.8341 17.5912 14.6113 18.0587L15.3213 18.1675C15.5525 18.18 15.7838 18.1625 16.0163 18.1512C16.3802 18.132 16.7356 18.0335 17.0575 17.8625C17.2211 17.7779 17.3808 17.6862 17.5363 17.5875C17.5363 17.5875 17.5892 17.5517 17.6925 17.475C17.8613 17.35 17.965 17.2612 18.105 17.115C18.21 17.0067 18.2975 16.8808 18.3675 16.7375C18.465 16.5337 18.5625 16.145 18.6025 15.8212C18.6325 15.5737 18.6238 15.4387 18.62 15.355C18.615 15.2212 18.5038 15.0825 18.3825 15.0237L17.655 14.6975C17.655 14.6975 16.5675 14.2237 15.9025 13.9212C15.8329 13.8909 15.7583 13.8736 15.6825 13.87C15.597 13.861 15.5105 13.8706 15.429 13.898C15.3475 13.9254 15.2728 13.97 15.21 14.0287C15.2038 14.0262 15.12 14.0975 14.2163 15.1925C14.1644 15.2622 14.0929 15.3149 14.011 15.3438C13.9291 15.3727 13.8404 15.3766 13.7563 15.355C13.6748 15.3333 13.595 15.3057 13.5175 15.2725C13.3625 15.2075 13.3088 15.1825 13.2025 15.1375C12.4849 14.8249 11.8206 14.4018 11.2338 13.8837C11.0763 13.7462 10.93 13.5962 10.78 13.4512C10.2883 12.9802 9.8597 12.4475 9.50501 11.8662L9.43126 11.7475C9.37909 11.6672 9.33631 11.5813 9.30376 11.4912C9.25626 11.3075 9.38001 11.16 9.38001 11.16C9.38001 11.16 9.68376 10.8275 9.82501 10.6475C9.96251 10.4725 10.0788 10.3025 10.1538 10.1812C10.3013 9.94374 10.3475 9.69999 10.27 9.51124C9.92001 8.65624 9.55834 7.80583 9.18501 6.95999C9.11126 6.79249 8.89251 6.67249 8.69376 6.64874C8.62626 6.64041 8.55876 6.63374 8.49126 6.62875C8.32342 6.61912 8.15513 6.62079 7.98751 6.63375L8.24001 6.625Z" fill="#6E767D"/>
</svg>
