<svg width="26" height="9" viewBox="0 0 26 9" fill="none" xmlns="http://www.w3.org/2000/svg">
<path d="M0 8.84705V7.85882L3.05883 4.92941C4.23531 3.78823 4.49413 3.38823 4.49413 2.67059C4.49413 1.70588 3.78825 0.999999 2.81177 0.999999C1.75295 0.999999 1.10589 1.7647 1.10589 3.02353H0.0235295C0.0235295 1.1647 1.10589 0 2.82354 0C4.42354 0 5.58825 1.14118 5.58825 2.70588C5.58825 3.68235 5.20002 4.34117 3.96472 5.51764L1.51765 7.83529H5.55296V8.84705H0Z" fill="#2C3148"/>
<path d="M6.49019 5.7647V3.14117C6.49019 1.14118 7.54901 0 9.39608 0C11.2314 0 12.3137 1.15294 12.3137 3.10588V5.7647C12.3137 7.87058 11.3255 8.99999 9.46666 8.99999C7.56078 8.99999 6.49019 7.84705 6.49019 5.7647ZM7.58431 5.65882C7.58431 7.22352 8.19607 7.99999 9.43137 7.99999C10.6549 7.99999 11.2196 7.25882 11.2196 5.67058V3.27059C11.2196 1.7647 10.6196 0.999999 9.40784 0.999999C8.20784 0.999999 7.58431 1.77647 7.58431 3.27059V5.65882Z" fill="#2C3148"/>
<path d="M13.0745 8.84705V7.85882L16.1333 4.92941C17.3098 3.78823 17.5686 3.38823 17.5686 2.67059C17.5686 1.70588 16.8627 0.999999 15.8863 0.999999C14.8274 0.999999 14.1804 1.7647 14.1804 3.02353H13.098C13.098 1.1647 14.1804 0 15.898 0C17.498 0 18.6627 1.14118 18.6627 2.70588C18.6627 3.68235 18.2745 4.34117 17.0392 5.51764L14.5921 7.83529H18.6274V8.84705H13.0745Z" fill="#2C3148"/>
<path d="M19.5294 6.15294H20.6353C20.7294 7.31764 21.3882 7.99999 22.3882 7.99999C23.3647 7.99999 24.0941 7.22352 24.0941 6.21176C24.0941 5.07058 23.3412 4.41176 22.0117 4.41176H21.7882V3.38823H22.3294C23.0235 3.38823 23.5059 2.89412 23.5059 2.18823C23.5059 1.49412 23.0353 0.999999 22.3764 0.999999C21.6588 0.999999 21.2706 1.44706 21.2353 2.28235H20.1294C20.2 0.882352 21.0588 0 22.3647 0C23.6706 0 24.6117 0.929411 24.6117 2.24706C24.6117 2.95294 24.3412 3.45882 23.7647 3.85882C24.7176 4.31764 25.2 5.10588 25.2 6.1647C25.2 7.7647 23.9882 8.99999 22.4117 8.99999C20.7529 8.99999 19.6117 7.87058 19.5294 6.15294Z" fill="#2C3148"/>
</svg>
