<svg width="153" height="41" viewBox="0 0 153 41" fill="none" xmlns="http://www.w3.org/2000/svg">
<path d="M0 34.6931H2.8744C3.58171 34.6931 4.13972 34.8876 4.49289 35.2417C4.77551 35.5243 4.91747 35.8702 4.91747 36.3116C4.91747 37.0105 4.5455 37.3994 4.10407 37.6475C4.82078 37.9218 5.26329 38.3379 5.26329 39.1871C5.26329 40.319 4.34369 40.8854 2.94592 40.8854H0.000108036V34.6932L0 34.6931ZM2.58227 37.1964C3.18338 37.1964 3.56378 37.0019 3.56378 36.5238C3.56378 36.1171 3.24529 35.8869 2.67043 35.8869H1.32636V37.1964H2.58227ZM2.94592 39.6914C3.54714 39.6914 3.90971 39.4791 3.90971 39.0009C3.90971 38.5848 3.59965 38.3283 2.90076 38.3283H1.32646V39.6903H2.94592V39.6914Z" fill="#2B2B2B"/>
<path d="M7.08398 38.2316V34.6931H8.44599V38.196C8.44599 39.2038 8.95041 39.7261 9.78175 39.7261C10.6131 39.7261 11.1175 39.2217 11.1175 38.24V34.6931H12.4795V38.1875C12.4795 40.0624 11.4265 40.9831 9.76392 40.9831C8.10136 40.9831 7.08398 40.0541 7.08398 38.2317V38.2316Z" fill="#2B2B2B"/>
<path d="M14.2412 39.9827L15.0463 39.019C15.6033 39.4794 16.1876 39.7704 16.8949 39.7704C17.4519 39.7704 17.7882 39.5497 17.7882 39.1692C17.7882 38.8245 17.576 38.647 16.5408 38.3821C15.2933 38.0636 14.4883 37.7189 14.4883 36.4714C14.4883 35.348 15.39 34.605 16.6554 34.605C17.557 34.605 18.3275 34.8877 18.9548 35.3922L18.2475 36.4179C17.6989 36.0375 17.1598 35.8073 16.6374 35.8073C16.1152 35.8073 15.8409 36.0459 15.8409 36.3644C15.8409 36.771 16.1068 36.9035 17.1767 37.1778C18.4326 37.5047 19.141 37.9566 19.141 39.0527C19.141 40.2823 18.2034 40.9718 16.8678 40.9718C15.9302 40.9728 14.9843 40.6459 14.2413 39.9828L14.2412 39.9827Z" fill="#2B2B2B"/>
<path d="M21.1852 34.6931H22.5472V40.8853H21.1852V34.6931Z" fill="#2B2B2B"/>
<path d="M24.8906 34.6931H26.1465L29.0481 38.5059V34.6931H30.3923V40.8853H29.2331L26.2348 36.9496V40.8853H24.8906V34.6931Z" fill="#2B2B2B"/>
<path d="M32.6751 34.6931H37.3455V35.9047L34.0287 35.9048V37.1608L36.9483 37.1607V38.3724L34.0287 38.3725V39.6725H37.3896V40.8841H32.6751V34.6931Z" fill="#2B2B2B"/>
<path d="M38.973 39.9827L39.778 39.019C40.3351 39.4794 40.9193 39.7704 41.6266 39.7704C42.1837 39.7704 42.52 39.5497 42.52 39.1692C42.52 38.8245 42.3077 38.647 41.2725 38.3821C40.025 38.0636 39.22 37.7189 39.22 36.4714C39.22 35.348 40.1217 34.605 41.387 34.605C42.2888 34.605 43.0591 34.8877 43.6866 35.3922L42.9793 36.4179C42.4306 36.0375 41.8916 35.8073 41.3692 35.8073C40.8468 35.8073 40.5726 36.0459 40.5726 36.3644C40.5726 36.771 40.8385 36.9035 41.9084 37.1778C43.1643 37.5047 43.8726 37.9566 43.8726 39.0527C43.8726 40.2823 42.9352 40.9718 41.5994 40.9718C40.6619 40.9728 39.7159 40.6459 38.973 39.9828V39.9827Z" fill="#2B2B2B"/>
<path d="M45.3419 39.9827L46.1469 39.019C46.704 39.4794 47.2882 39.7704 47.9955 39.7704C48.5526 39.7704 48.8889 39.5497 48.8889 39.1692C48.8889 38.8245 48.6766 38.647 47.6414 38.3821C46.3939 38.0636 45.5889 37.7189 45.5889 36.4714C45.5889 35.348 46.4906 34.605 47.756 34.605C48.6577 34.605 49.4281 34.8877 50.0555 35.3922L49.3481 36.4179C48.7995 36.0375 48.2604 35.8073 47.7381 35.8073C47.2157 35.8073 46.9415 36.0459 46.9415 36.3644C46.9415 36.771 47.2074 36.9035 48.2773 37.1778C49.5332 37.5047 50.2415 37.9566 50.2415 39.0527C50.2415 40.2823 49.3041 40.9718 47.9683 40.9718C47.0319 40.9728 46.0848 40.6459 45.3419 39.9828V39.9827Z" fill="#2B2B2B"/>
<path d="M55.2495 39.9827L56.0545 39.019C56.6115 39.4794 57.1958 39.7704 57.9031 39.7704C58.4601 39.7704 58.7964 39.5497 58.7964 39.1692C58.7964 38.8245 58.5841 38.647 57.5489 38.3821C56.3015 38.0636 55.4965 37.7189 55.4965 36.4714C55.4965 35.348 56.3981 34.605 57.6636 34.605C58.5652 34.605 59.3356 34.8877 59.963 35.3922L59.2557 36.4179C58.7071 36.0375 58.168 35.8073 57.6456 35.8073C57.1234 35.8073 56.8491 36.0459 56.8491 36.3644C56.8491 36.771 57.115 36.9035 58.1848 37.1778C59.4408 37.5047 60.1491 37.9566 60.1491 39.0527C60.1491 40.2823 59.2117 40.9718 57.876 40.9718C56.9384 40.9728 55.9926 40.6459 55.2496 39.9828L55.2495 39.9827Z" fill="#2B2B2B"/>
<path d="M61.8566 37.7891C61.8566 36.0288 63.1839 34.5869 65.085 34.5869C66.2526 34.5869 66.9073 35.0293 67.4822 35.5948L66.6687 36.5322C66.1916 36.0992 65.7839 35.8418 65.0766 35.8418C64.0329 35.8418 63.2805 36.7087 63.2805 37.7881C63.2805 38.8496 64.0151 39.7345 65.0766 39.7345C65.7839 39.7345 66.2179 39.4518 66.7044 39.0094L67.5714 39.9384C66.9346 40.6193 66.2274 40.9914 65.0324 40.9914C63.21 40.9914 61.8564 39.5852 61.8564 37.7892L61.8566 37.7891Z" fill="#2B2B2B"/>
<path d="M69.4547 34.6931H70.8167V37.1428H73.3285V34.6931H74.6905V40.8853H73.3285V38.3998H70.8167V40.8853H69.4547V34.6931Z" fill="#2B2B2B"/>
<path d="M76.6991 37.7891C76.6991 36.0288 78.0874 34.5869 79.9981 34.5869C81.9087 34.5869 83.2802 36.0109 83.2802 37.7891C83.2802 39.5494 81.8919 40.9913 79.9812 40.9913C78.0706 40.9913 76.6991 39.5673 76.6991 37.7891ZM81.8562 37.7891C81.8562 36.7276 81.0775 35.8427 79.9812 35.8427C78.8851 35.8427 78.1242 36.7097 78.1242 37.7891C78.1242 38.8506 78.9029 39.7355 79.999 39.7355C81.0953 39.7354 81.8561 38.8684 81.8561 37.7891H81.8562Z" fill="#2B2B2B"/>
<path d="M85.0145 37.7891C85.0145 36.0288 86.4028 34.5869 88.3135 34.5869C90.2241 34.5869 91.5956 36.0109 91.5956 37.7891C91.5956 39.5494 90.2074 40.9913 88.2967 40.9913C86.386 40.9913 85.0145 39.5673 85.0145 37.7891ZM90.1715 37.7891C90.1715 36.7276 89.3928 35.8427 88.2967 35.8427C87.1994 35.8427 86.4396 36.7097 86.4396 37.7891C86.4396 38.8506 87.2184 39.7355 88.3145 39.7355C89.4106 39.7355 90.1715 38.8684 90.1715 37.7891Z" fill="#2B2B2B"/>
<path d="M93.6032 34.6931H94.9654V39.6462H98.052V40.8841H93.6022V34.6931H93.6032Z" fill="#2B2B2B"/>
<path d="M0.201935 5.22272H5.19287L16.7218 20.3722V5.22272H22.0648V29.8274H17.4605L5.54495 14.1852V29.8264H0.201935V5.22272Z" fill="#2B2B2B"/>
<path d="M36.3012 5.04727H41.2922L51.8374 29.8275H46.1781L43.928 24.309H33.5236L31.2736 29.8275H25.7551L36.3013 5.04727H36.3012ZM41.9953 19.5294L38.7269 11.5505L35.4584 19.5294H41.9953Z" fill="#2B2B2B"/>
<path d="M55.5282 5.22283H66.7765C69.9051 5.22283 72.3297 6.10148 73.9472 7.71878C75.3176 9.08921 76.0565 11.0229 76.0565 13.4128C76.0565 17.3843 73.9125 19.8803 70.7839 21.0406L76.7943 29.8274H70.4676L65.1246 21.9537H60.9418V29.8274H55.5284V5.22272L55.5282 5.22283ZM66.4244 17.1731C69.0602 17.1731 70.5715 15.7669 70.5715 13.623C70.5715 11.3036 68.9552 10.1077 66.3182 10.1077H60.9405V17.1731L66.4244 17.1732V17.1731Z" fill="#2B2B2B"/>
<path d="M87.5493 17.3144L75.9657 0H82.2924L90.8188 13.202L96.0209 5.22321H102.172L93.9474 17.2439L109.913 40.845H103.587L90.679 21.392L85.1258 29.8278L78.9746 29.8279L87.5493 17.3144Z" fill="#991E1E"/>
<path d="M103.614 17.5255C103.614 10.5304 109.133 4.80179 116.725 4.80179C124.317 4.80179 129.765 10.4611 129.765 17.5255C129.765 24.5206 124.246 30.2493 116.654 30.2493C109.062 30.2493 103.614 24.59 103.614 17.5255H103.614ZM124.105 17.5255C124.105 13.3081 121.013 9.79261 116.654 9.79261C112.296 9.79261 109.272 13.2377 109.272 17.5255C109.272 21.743 112.365 25.2584 116.725 25.2584C121.083 25.2585 124.105 21.8134 124.105 17.5255H124.105Z" fill="#2B2B2B"/>
<path d="M132.508 25.7152L146.041 9.96776H132.93V5.22272H153V9.33618L139.467 25.0836L153 25.0835V29.8284L132.508 29.8285V25.7152Z" fill="#2B2B2B"/>
</svg>
