<svg width="95" height="426" viewBox="0 0 95 426" fill="none" xmlns="http://www.w3.org/2000/svg">
<path d="M94.5 0.5C94.5 0.5 77.7971 8.75966 66.8916 18.3395C55.9861 27.9194 50.7046 36.4147 43.2273 47.7222C35.75 59.0298 28.2362 76.1089 23.507 86.0247C18.7778 95.9404 11.7068 118.362 8.38811 132.198C5.06944 146.033 0.5 186.765 0.5 186.765V248.154C0.5 248.154 6.48456 305.316 8.38811 315.315C10.2917 325.314 18.2848 358.856 22.6944 366.443C22.6944 366.443 33.7917 387.007 39.6667 393.335C45.5417 399.663 58.8666 408.099 66.8916 412.318C74.9167 416.536 94.5 425.5 94.5 425.5H0.5V248.154V186.765V0.5H94.5Z" fill="white" stroke="white"/>
</svg>
