<svg width="25" height="25" viewBox="0 0 25 25" fill="none" xmlns="http://www.w3.org/2000/svg">
<path d="M18.0556 0C19.8973 0 21.6637 0.731645 22.966 2.03398C24.2684 3.33632 25 5.10266 25 6.94444V18.0556C25 19.8973 24.2684 21.6637 22.966 22.966C21.6637 24.2684 19.8973 25 18.0556 25H6.94444C5.10266 25 3.33632 24.2684 2.03398 22.966C0.731645 21.6637 0 19.8973 0 18.0556V6.94444C0 5.10266 0.731645 3.33632 2.03398 2.03398C3.33632 0.731645 5.10266 0 6.94444 0H18.0556ZM12.5 6.94444C11.0266 6.94444 9.6135 7.52976 8.57163 8.57163C7.52976 9.6135 6.94444 11.0266 6.94444 12.5C6.94444 13.9734 7.52976 15.3865 8.57163 16.4284C9.6135 17.4702 11.0266 18.0556 12.5 18.0556C13.9734 18.0556 15.3865 17.4702 16.4284 16.4284C17.4702 15.3865 18.0556 13.9734 18.0556 12.5C18.0556 11.0266 17.4702 9.6135 16.4284 8.57163C15.3865 7.52976 13.9734 6.94444 12.5 6.94444ZM12.5 9.72222C13.2367 9.72222 13.9432 10.0149 14.4642 10.5358C14.9851 11.0567 15.2778 11.7633 15.2778 12.5C15.2778 13.2367 14.9851 13.9432 14.4642 14.4642C13.9432 14.9851 13.2367 15.2778 12.5 15.2778C11.7633 15.2778 11.0567 14.9851 10.5358 14.4642C10.0149 13.9432 9.72222 13.2367 9.72222 12.5C9.72222 11.7633 10.0149 11.0567 10.5358 10.5358C11.0567 10.0149 11.7633 9.72222 12.5 9.72222ZM18.75 4.86111C18.3816 4.86111 18.0284 5.00744 17.7679 5.26791C17.5074 5.52837 17.3611 5.88164 17.3611 6.25C17.3611 6.61836 17.5074 6.97162 17.7679 7.23209C18.0284 7.49256 18.3816 7.63889 18.75 7.63889C19.1184 7.63889 19.4716 7.49256 19.7321 7.23209C19.9926 6.97162 20.1389 6.61836 20.1389 6.25C20.1389 5.88164 19.9926 5.52837 19.7321 5.26791C19.4716 5.00744 19.1184 4.86111 18.75 4.86111Z" fill="#6E767D"/>
</svg>
