<svg width="153" height="41" viewBox="0 0 153 41" fill="none" xmlns="http://www.w3.org/2000/svg">
<path d="M0 34.6934H2.8744C3.58171 34.6934 4.13972 34.8878 4.49289 35.242C4.77551 35.5246 4.91747 35.8704 4.91747 36.3118C4.91747 37.0107 4.5455 37.3997 4.10407 37.6477C4.82078 37.922 5.26329 38.3382 5.26329 39.1873C5.26329 40.3192 4.34369 40.8856 2.94592 40.8856H0.000108036V34.6935L0 34.6934ZM2.58227 37.1967C3.18338 37.1967 3.56378 37.0022 3.56378 36.524C3.56378 36.1174 3.24529 35.8872 2.67043 35.8872H1.32636V37.1967H2.58227ZM2.94592 39.6916C3.54714 39.6916 3.90971 39.4793 3.90971 39.0012C3.90971 38.585 3.59965 38.3285 2.90076 38.3285H1.32646V39.6906H2.94592V39.6916Z" fill="#2B2B2B"/>
<path d="M7.08398 38.2319V34.6934H8.44599V38.1962C8.44599 39.2041 8.95041 39.7263 9.78175 39.7263C10.6131 39.7263 11.1175 39.2219 11.1175 38.2403V34.6934H12.4795V38.1878C12.4795 40.0626 11.4265 40.9833 9.76392 40.9833C8.10136 40.9833 7.08398 40.0543 7.08398 38.232V38.2319Z" fill="#2B2B2B"/>
<path d="M14.2412 39.9832L15.0463 39.0195C15.6033 39.4798 16.1876 39.7709 16.8949 39.7709C17.4519 39.7709 17.7882 39.5502 17.7882 39.1697C17.7882 38.8249 17.576 38.6474 16.5408 38.3825C15.2933 38.064 14.4883 37.7194 14.4883 36.4719C14.4883 35.3484 15.39 34.6055 16.6554 34.6055C17.557 34.6055 18.3275 34.8882 18.9548 35.3926L18.2475 36.4183C17.6989 36.0379 17.1598 35.8078 16.6374 35.8078C16.1152 35.8078 15.8409 36.0463 15.8409 36.3648C15.8409 36.7715 16.1068 36.9039 17.1767 37.1782C18.4326 37.5052 19.141 37.9571 19.141 39.0532C19.141 40.2828 18.2034 40.9722 16.8678 40.9722C15.9302 40.9732 14.9843 40.6464 14.2413 39.9833L14.2412 39.9832Z" fill="#2B2B2B"/>
<path d="M21.1852 34.6934H22.5472V40.8855H21.1852V34.6934Z" fill="#2B2B2B"/>
<path d="M24.8906 34.6934H26.1465L29.0481 38.5062V34.6934H30.3923V40.8855H29.2331L26.2348 36.9498V40.8855H24.8906V34.6934Z" fill="#2B2B2B"/>
<path d="M32.6751 34.6934H37.3455V35.905L34.0287 35.9051V37.161L36.9483 37.1609V38.3726L34.0287 38.3727V39.6727H37.3896V40.8844H32.6751V34.6934Z" fill="#2B2B2B"/>
<path d="M38.973 39.9832L39.778 39.0195C40.3351 39.4798 40.9193 39.7709 41.6266 39.7709C42.1837 39.7709 42.52 39.5502 42.52 39.1697C42.52 38.8249 42.3077 38.6474 41.2725 38.3825C40.025 38.064 39.22 37.7194 39.22 36.4719C39.22 35.3484 40.1217 34.6055 41.387 34.6055C42.2888 34.6055 43.0591 34.8882 43.6866 35.3926L42.9793 36.4183C42.4306 36.0379 41.8916 35.8078 41.3692 35.8078C40.8468 35.8078 40.5726 36.0463 40.5726 36.3648C40.5726 36.7715 40.8385 36.9039 41.9084 37.1782C43.1643 37.5052 43.8726 37.9571 43.8726 39.0532C43.8726 40.2828 42.9352 40.9722 41.5994 40.9722C40.6619 40.9732 39.7159 40.6464 38.973 39.9833V39.9832Z" fill="#2B2B2B"/>
<path d="M45.3419 39.9832L46.1469 39.0195C46.704 39.4798 47.2882 39.7709 47.9955 39.7709C48.5526 39.7709 48.8889 39.5502 48.8889 39.1697C48.8889 38.8249 48.6766 38.6474 47.6414 38.3825C46.3939 38.064 45.5889 37.7194 45.5889 36.4719C45.5889 35.3484 46.4906 34.6055 47.756 34.6055C48.6577 34.6055 49.4281 34.8882 50.0555 35.3926L49.3481 36.4183C48.7995 36.0379 48.2604 35.8078 47.7381 35.8078C47.2157 35.8078 46.9415 36.0463 46.9415 36.3648C46.9415 36.7715 47.2074 36.9039 48.2773 37.1782C49.5332 37.5052 50.2415 37.9571 50.2415 39.0532C50.2415 40.2828 49.3041 40.9722 47.9683 40.9722C47.0319 40.9732 46.0848 40.6464 45.3419 39.9833V39.9832Z" fill="#2B2B2B"/>
<path d="M55.2495 39.9832L56.0545 39.0195C56.6115 39.4798 57.1958 39.7709 57.9031 39.7709C58.4601 39.7709 58.7964 39.5502 58.7964 39.1697C58.7964 38.8249 58.5841 38.6474 57.5489 38.3825C56.3015 38.064 55.4965 37.7194 55.4965 36.4719C55.4965 35.3484 56.3981 34.6055 57.6636 34.6055C58.5652 34.6055 59.3356 34.8882 59.963 35.3926L59.2557 36.4183C58.7071 36.0379 58.168 35.8078 57.6456 35.8078C57.1234 35.8078 56.8491 36.0463 56.8491 36.3648C56.8491 36.7715 57.115 36.9039 58.1848 37.1782C59.4408 37.5052 60.1491 37.9571 60.1491 39.0532C60.1491 40.2828 59.2117 40.9722 57.876 40.9722C56.9384 40.9732 55.9926 40.6464 55.2496 39.9833L55.2495 39.9832Z" fill="#2B2B2B"/>
<path d="M61.8566 37.7891C61.8566 36.0288 63.1839 34.5869 65.085 34.5869C66.2526 34.5869 66.9073 35.0293 67.4822 35.5948L66.6687 36.5322C66.1916 36.0992 65.7839 35.8418 65.0766 35.8418C64.0329 35.8418 63.2805 36.7087 63.2805 37.7881C63.2805 38.8496 64.0151 39.7345 65.0766 39.7345C65.7839 39.7345 66.2179 39.4518 66.7044 39.0094L67.5714 39.9384C66.9346 40.6193 66.2274 40.9914 65.0324 40.9914C63.21 40.9914 61.8564 39.5852 61.8564 37.7892L61.8566 37.7891Z" fill="#2B2B2B"/>
<path d="M69.4547 34.6934H70.8167V37.1431H73.3285V34.6934H74.6905V40.8855H73.3285V38.4001H70.8167V40.8855H69.4547V34.6934Z" fill="#2B2B2B"/>
<path d="M76.6991 37.7891C76.6991 36.0288 78.0874 34.5869 79.9981 34.5869C81.9087 34.5869 83.2802 36.0109 83.2802 37.7891C83.2802 39.5494 81.8919 40.9913 79.9812 40.9913C78.0706 40.9913 76.6991 39.5673 76.6991 37.7891ZM81.8562 37.7891C81.8562 36.7276 81.0775 35.8427 79.9812 35.8427C78.8851 35.8427 78.1242 36.7097 78.1242 37.7891C78.1242 38.8506 78.9029 39.7355 79.999 39.7355C81.0953 39.7354 81.8561 38.8684 81.8561 37.7891H81.8562Z" fill="#2B2B2B"/>
<path d="M85.0145 37.7891C85.0145 36.0288 86.4028 34.5869 88.3135 34.5869C90.2241 34.5869 91.5956 36.0109 91.5956 37.7891C91.5956 39.5494 90.2074 40.9913 88.2967 40.9913C86.386 40.9913 85.0145 39.5673 85.0145 37.7891ZM90.1715 37.7891C90.1715 36.7276 89.3928 35.8427 88.2967 35.8427C87.1994 35.8427 86.4396 36.7097 86.4396 37.7891C86.4396 38.8506 87.2184 39.7355 88.3145 39.7355C89.4106 39.7355 90.1715 38.8684 90.1715 37.7891Z" fill="#2B2B2B"/>
<path d="M93.6032 34.6934H94.9654V39.6465H98.052V40.8844H93.6022V34.6934H93.6032Z" fill="#2B2B2B"/>
<path d="M0.201935 5.22266H5.19287L16.7218 20.3721V5.22266H22.0648V29.8274H17.4605L5.54495 14.1851V29.8263H0.201935V5.22266Z" fill="#2B2B2B"/>
<path d="M36.3012 5.04688H41.2922L51.8374 29.8271H46.1781L43.928 24.3086H33.5236L31.2736 29.8271H25.7551L36.3013 5.04688H36.3012ZM41.9953 19.529L38.7269 11.5501L35.4584 19.529H41.9953Z" fill="#2B2B2B"/>
<path d="M55.5282 5.22276H66.7765C69.9051 5.22276 72.3297 6.10142 73.9472 7.71872C75.3176 9.08915 76.0565 11.0229 76.0565 13.4127C76.0565 17.3843 73.9125 19.8802 70.7839 21.0405L76.7943 29.8274H70.4676L65.1246 21.9536H60.9418V29.8274H55.5284V5.22266L55.5282 5.22276ZM66.4244 17.173C69.0602 17.173 70.5715 15.7668 70.5715 13.623C70.5715 11.3036 68.9552 10.1076 66.3182 10.1076H60.9405V17.173L66.4244 17.1731V17.173Z" fill="#2B2B2B"/>
<path d="M87.5493 17.3144L75.9657 0H82.2924L90.8188 13.202L96.0209 5.22321H102.172L93.9474 17.2439L109.913 40.845H103.587L90.679 21.392L85.1258 29.8278L78.9746 29.8279L87.5493 17.3144Z" fill="#991E1E"/>
<path d="M103.614 17.5255C103.614 10.5304 109.133 4.80176 116.725 4.80176C124.317 4.80176 129.765 10.4611 129.765 17.5255C129.765 24.5206 124.246 30.2493 116.654 30.2493C109.062 30.2493 103.614 24.5899 103.614 17.5255H103.614ZM124.105 17.5255C124.105 13.3081 121.013 9.79258 116.654 9.79258C112.296 9.79258 109.272 13.2376 109.272 17.5255C109.272 21.743 112.365 25.2583 116.725 25.2583C121.083 25.2584 124.105 21.8134 124.105 17.5255H124.105Z" fill="#2B2B2B"/>
<path d="M132.508 25.7151L146.041 9.9677H132.93V5.22266H153V9.33612L139.467 25.0835L153 25.0834V29.8284L132.508 29.8285V25.7151Z" fill="#2B2B2B"/>
</svg>
