<svg width="97" height="11" viewBox="0 0 97 11" fill="none" xmlns="http://www.w3.org/2000/svg">
<path d="M0 6.11094H1.12162C1.22257 7.05454 1.77216 7.59374 2.64702 7.59374C3.49945 7.59374 4.11634 6.98714 4.11634 6.15587C4.11634 5.23474 3.43216 4.86404 2.27689 4.50457C0.863647 4.06647 0.280405 3.4037 0.280405 2.28037C0.280405 0.966068 1.27865 0 2.61337 0C3.99297 0 4.93513 0.909901 4.97999 2.28037H3.8808C3.82472 1.49404 3.33121 0.999768 2.60216 0.999768C1.8731 0.999768 1.35716 1.52773 1.35716 2.24667C1.35716 2.90944 1.74973 3.25767 2.89378 3.61714C4.54256 4.12264 5.18188 4.81911 5.18188 6.06601C5.18188 7.50387 4.09391 8.59351 2.63581 8.59351C1.13284 8.59351 0.0897296 7.60498 0 6.11094Z" fill="#2C3148"/>
<path d="M10.5526 8.44748V7.61621C10.0815 8.30144 9.52071 8.59351 8.63463 8.59351C6.97463 8.59351 6.11099 7.57128 6.11099 5.59421V2.28037H7.16531V5.50434C7.16531 6.95344 7.68125 7.62744 8.78044 7.62744C9.93571 7.62744 10.5077 6.88604 10.5077 5.35831V2.28037H11.5621V8.44748H10.5526Z" fill="#2C3148"/>
<path d="M12.431 6.58274H13.4741C13.5526 7.26797 13.9115 7.62744 14.5284 7.62744C15.0555 7.62744 15.4369 7.24551 15.4369 6.71754C15.4369 6.15587 15.0443 5.94244 14.2928 5.66161C13.0815 5.21227 12.6553 4.76294 12.6553 3.92044C12.6553 2.87574 13.4292 2.13434 14.506 2.13434C15.5491 2.13434 16.3005 2.84204 16.3342 3.86427H15.2911C15.235 3.35877 14.9546 3.1004 14.4947 3.1004C14.0349 3.1004 13.7096 3.39247 13.7096 3.8081C13.7096 4.3136 14.248 4.6169 14.9658 4.86404C15.9977 5.21227 16.4912 5.78517 16.4912 6.61644C16.4912 7.76224 15.6612 8.59351 14.506 8.59351C13.2722 8.59351 12.4758 7.81841 12.431 6.58274Z" fill="#2C3148"/>
<path d="M18.0533 8.44748V3.2352H16.9205V2.28037H18.0533V0.146034H19.0964V2.28037H20.319V3.2352H19.0964V8.44748H18.0533Z" fill="#2C3148"/>
<path d="M20.8703 5.38077C20.8703 3.51604 22.2386 2.13434 24.0781 2.13434C25.0988 2.13434 25.7942 2.48257 26.3774 3.28014V2.28037H27.3869V8.44748H26.3774V7.45894C25.7381 8.26774 25.0988 8.59351 24.1118 8.59351C22.2499 8.59351 20.8703 7.23427 20.8703 5.38077ZM21.9358 5.36954C21.9358 6.65014 22.9116 7.62744 24.179 7.62744C25.424 7.62744 26.355 6.66137 26.355 5.35831C26.355 4.05524 25.4128 3.1004 24.123 3.1004C22.9004 3.1004 21.9358 4.10017 21.9358 5.36954Z" fill="#2C3148"/>
<path d="M28.7298 8.44748V2.28037H29.7842V8.44748H28.7298ZM28.7298 1.56143V0.146034H29.7842V1.56143H28.7298Z" fill="#2C3148"/>
<path d="M31.1286 8.44748V2.28037H32.1381V3.01054C32.6652 2.40394 33.2597 2.13434 34.0448 2.13434C35.7273 2.13434 36.5909 3.1678 36.5909 5.18981V8.44748H35.5366V5.27967C35.5366 3.8081 34.987 3.1004 33.8766 3.1004C32.7438 3.1004 32.1829 3.79687 32.1829 5.21227V8.44748H31.1286Z" fill="#2C3148"/>
<path d="M37.6727 5.38077C37.6727 3.51604 39.041 2.13434 40.8805 2.13434C41.9012 2.13434 42.5966 2.48257 43.1798 3.28014V2.28037H44.1893V8.44748H43.1798V7.45894C42.5405 8.26774 41.9012 8.59351 40.9141 8.59351C39.0522 8.59351 37.6727 7.23427 37.6727 5.38077ZM38.7382 5.36954C38.7382 6.65014 39.714 7.62744 40.9814 7.62744C42.2264 7.62744 43.1574 6.66137 43.1574 5.35831C43.1574 4.05524 42.2152 3.1004 40.9254 3.1004C39.7028 3.1004 38.7382 4.10017 38.7382 5.36954Z" fill="#2C3148"/>
<path d="M45.5322 8.44748V0.146034H46.5866V3.1678C47.1361 2.4601 47.8764 2.10064 48.8298 2.10064C50.6468 2.10064 52.0264 3.5048 52.0264 5.34707C52.0264 7.21181 50.6805 8.59351 48.8634 8.59351C47.8764 8.59351 47.1025 8.21158 46.5417 7.48141V8.44748H45.5322ZM48.7513 7.62744C50.0299 7.62744 50.9721 6.66137 50.9721 5.34707C50.9721 4.02154 50.0299 3.0667 48.7176 3.0667C47.4614 3.0667 46.5193 4.05524 46.5193 5.35831C46.5193 6.63891 47.4951 7.62744 48.7513 7.62744Z" fill="#2C3148"/>
<path d="M53.1229 8.44748V2.28037H54.1772V8.44748H53.1229ZM53.1229 1.56143V0.146034H54.1772V1.56143H53.1229Z" fill="#2C3148"/>
<path d="M55.5217 8.44748V0.146034H56.576V8.44748H55.5217Z" fill="#2C3148"/>
<path d="M57.9204 8.44748V2.28037H58.9748V8.44748H57.9204ZM57.9204 1.56143V0.146034H58.9748V1.56143H57.9204Z" fill="#2C3148"/>
<path d="M60.9137 8.44748V3.2352H59.7808V2.28037H60.9137V0.146034H61.9568V2.28037H63.1793V3.2352H61.9568V8.44748H60.9137Z" fill="#2C3148"/>
<path d="M64.684 10.5818L65.7383 8.12171L63.3941 2.28037H64.5718L66.3215 6.88604L68.2059 2.28037H69.3723L65.8056 10.5818H64.684Z" fill="#2C3148"/>
<path d="M72.9749 8.44748V7.50387L75.8911 4.70677C77.0128 3.61714 77.2595 3.2352 77.2595 2.54997C77.2595 1.62883 76.5865 0.954834 75.6556 0.954834C74.6461 0.954834 74.0292 1.685 74.0292 2.88697H72.9974C72.9974 1.1121 74.0292 0 75.6668 0C77.1922 0 78.3026 1.08963 78.3026 2.58367C78.3026 3.51604 77.9325 4.1451 76.7548 5.26844L74.4218 7.48141H78.269V8.44748H72.9749Z" fill="#2C3148"/>
<path d="M79.1625 5.50434V2.9993C79.1625 1.08963 80.172 0 81.9329 0C83.6826 0 84.7145 1.10087 84.7145 2.9656V5.50434C84.7145 7.51511 83.7724 8.59351 82.0002 8.59351C80.1832 8.59351 79.1625 7.49264 79.1625 5.50434ZM80.2056 5.40324C80.2056 6.89727 80.7888 7.63867 81.9665 7.63867C83.133 7.63867 83.6714 6.93097 83.6714 5.41447V3.12287C83.6714 1.685 83.0994 0.954834 81.9441 0.954834C80.8001 0.954834 80.2056 1.69624 80.2056 3.12287V5.40324Z" fill="#2C3148"/>
<path d="M85.4398 8.44748V7.50387L88.356 4.70677C89.4776 3.61714 89.7244 3.2352 89.7244 2.54997C89.7244 1.62883 89.0514 0.954834 88.1205 0.954834C87.111 0.954834 86.4941 1.685 86.4941 2.88697H85.4622C85.4622 1.1121 86.4941 0 88.1317 0C89.6571 0 90.7675 1.08963 90.7675 2.58367C90.7675 3.51604 90.3974 4.1451 89.2197 5.26844L86.8867 7.48141H90.7338V8.44748H85.4398Z" fill="#2C3148"/>
<path d="M91.5937 5.87504H92.648C92.7378 6.98714 93.3659 7.63867 94.3193 7.63867C95.2502 7.63867 95.9456 6.89727 95.9456 5.93121C95.9456 4.84157 95.2278 4.2125 93.9603 4.2125H93.7472V3.2352H94.2632C94.9249 3.2352 95.3848 2.7634 95.3848 2.0894C95.3848 1.42664 94.9361 0.954834 94.308 0.954834C93.6239 0.954834 93.2537 1.3817 93.2201 2.17927H92.1657C92.233 0.842501 93.0518 0 94.2968 0C95.5418 0 96.4391 0.887434 96.4391 2.14557C96.4391 2.81957 96.1811 3.3026 95.6315 3.68454C96.5401 4.12264 96.9999 4.87527 96.9999 5.88627C96.9999 7.41401 95.8447 8.59351 94.3417 8.59351C92.7602 8.59351 91.6722 7.51511 91.5937 5.87504Z" fill="#2C3148"/>
</svg>
